<svg id="Layer_1" data-name="Layer 1" xmlns="http://www.w3.org/2000/svg" viewBox="0 0 476.64 378.08"><defs><style>.cls-1{fill:#231f20;}.cls-2{fill:#fff;}.cls-3{fill:#009444;}</style></defs><title>Arrowhead-building-supply-Logo-Primary</title><rect class="cls-1" y="296.3" width="476.39" height="47.51"/><path class="cls-1" d="M371.73,109l-7,6.15-.51-9L251.1,63.43l-71.93,57.08L181,131.8l-12.18-3-28.65,22.91-35,3.06L97.21,207.9l50.64-2,104.07,70.84L359.3,223.33l4.5-10,3.92,5.82,127.54-63.47Zm-176,112.75-40.9-29L111.49,195,115.94,165l27.46-1.68,31.24-24.39,15.5,4.16-2.27-14.63,64.41-51.65,105,39.66.71,16.7,13.26-11.45,19.92,7.53.15,9.61,7.83-6.6,66,24.92-96,47.08-4.31-10.42L357,210.07,254.21,260.52Z" transform="translate(-48.68 -63.43)"/><polygon class="cls-2" points="322.34 135.59 406.86 94.16 68.85 116.85 67.27 127.53 107.22 125.4 149.21 155.21 205.82 192.7 305.34 143.92 316.46 121.02 322.34 135.59"/><polygon class="cls-3" points="70.49 105.05 68.75 116.86 406.86 94.16 351.16 73.12 339.14 83.19 338.8 68.45 323.22 62.6 305.96 77.64 304.89 55.62 204.21 17.62 143.19 66.54 146.01 84.69 126.79 79.52 96.09 103.48 70.49 105.05"/><path class="cls-2" d="M63.37,369.85h11a13.44,13.44,0,0,1,3.65.46,8.67,8.67,0,0,1,2.78,1.3,5.85,5.85,0,0,1,1.79,2.08,6.07,6.07,0,0,1,.64,2.8,5.69,5.69,0,0,1-.89,3.46,6.15,6.15,0,0,1-2.21,1.82,9.33,9.33,0,0,1,2.09.88A6.67,6.67,0,0,1,84,384.1a6.78,6.78,0,0,1,1.19,2.06,7.87,7.87,0,0,1,.44,2.74,7.11,7.11,0,0,1-2.82,6q-2.82,2.12-7.9,2.12H63.37Zm10.49,10a2.37,2.37,0,0,0,1.75-.56,2.06,2.06,0,0,0,.56-1.52,2.38,2.38,0,0,0-.52-1.58,2.1,2.1,0,0,0-1.71-.62H70.36v4.28Zm.88,11.41a3.84,3.84,0,0,0,2.88-.84,3.17,3.17,0,0,0,.77-2.24,3.06,3.06,0,0,0-.79-2.22,3.92,3.92,0,0,0-2.86-.82H70.36v6.12Z" transform="translate(-48.68 -63.43)"/><path class="cls-2" d="M101.47,397.46a15.46,15.46,0,0,1-4.69-.68,10.38,10.38,0,0,1-3.71-2,9.26,9.26,0,0,1-2.44-3.4,12.13,12.13,0,0,1-.87-4.8V369.85H97v16.64a5.31,5.31,0,0,0,1.09,3.59,5.2,5.2,0,0,0,6.8,0,5.32,5.32,0,0,0,1.09-3.59V369.85h7.23v16.69a12.13,12.13,0,0,1-.87,4.8,9.25,9.25,0,0,1-2.44,3.4,10.36,10.36,0,0,1-3.71,2A15.47,15.47,0,0,1,101.47,397.46Z" transform="translate(-48.68 -63.43)"/><path class="cls-2" d="M119.07,369.85h7.23v27.21h-7.23Z" transform="translate(-48.68 -63.43)"/><path class="cls-2" d="M132.46,369.85h7.23v21.09h11.48v6.12H132.46Z" transform="translate(-48.68 -63.43)"/><path class="cls-2" d="M155.82,369.85h10.45a15.25,15.25,0,0,1,5.4.94,12.69,12.69,0,0,1,4.35,2.7,12.13,12.13,0,0,1,2.88,4.28,16.13,16.13,0,0,1,0,11.36,12.17,12.17,0,0,1-2.88,4.28,12.63,12.63,0,0,1-4.35,2.7,15.21,15.21,0,0,1-5.4.94H155.82Zm9.65,21.09a6.73,6.73,0,0,0,5.18-2,8.81,8.81,0,0,0,0-10.9,6.73,6.73,0,0,0-5.18-2h-2.42v15Z" transform="translate(-48.68 -63.43)"/><path class="cls-2" d="M184.62,369.85h7.23v27.21h-7.23Z" transform="translate(-48.68 -63.43)"/><path class="cls-2" d="M204.81,383.5v13.56H198V369.49a.32.32,0,0,1,.12-.28c.08-.05.23,0,.44.2l17,14.09V369.85h6.79v27.61c0,.16,0,.26-.12.3s-.23,0-.44-.22Z" transform="translate(-48.68 -63.43)"/><path class="cls-2" d="M246.88,387.9h-5.36v-5.6h11.8v11.37a16.78,16.78,0,0,1-2.07,1.48,13.72,13.72,0,0,1-2.5,1.18,19.18,19.18,0,0,1-3.16.8,24.48,24.48,0,0,1-4,.3,15.46,15.46,0,0,1-5.62-1,14.12,14.12,0,0,1-4.63-2.88,13.82,13.82,0,0,1,0-20.1,14.17,14.17,0,0,1,4.57-2.87,15,15,0,0,1,5.54-1,14.73,14.73,0,0,1,6.33,1.28,12.31,12.31,0,0,1,4.51,3.56l-5,4.4a8.13,8.13,0,0,0-2.48-2.12,7.89,7.89,0,0,0-6.42-.22,5.93,5.93,0,0,0-2.12,1.6,7.26,7.26,0,0,0-1.31,2.42,9.67,9.67,0,0,0-.46,3,9.85,9.85,0,0,0,.46,3,7.27,7.27,0,0,0,1.37,2.5,6.4,6.4,0,0,0,2.27,1.7,7.45,7.45,0,0,0,3.14.62,12.66,12.66,0,0,0,3.18-.32,10.78,10.78,0,0,0,2.07-.76Z" transform="translate(-48.68 -63.43)"/><path class="cls-2" d="M278.19,397.46a15.87,15.87,0,0,1-4.07-.48,15.29,15.29,0,0,1-3.18-1.2,10.71,10.71,0,0,1-2.34-1.62,13.51,13.51,0,0,1-1.61-1.74l5.24-4a9.79,9.79,0,0,0,2.31,2.1,5.94,5.94,0,0,0,3.34.86,5.23,5.23,0,0,0,2.52-.5,1.75,1.75,0,0,0,.9-1.66,1.64,1.64,0,0,0-.66-1.38,7,7,0,0,0-2-.94l-3.18-1.08a13.8,13.8,0,0,1-2.7-1.2,8.67,8.67,0,0,1-2.13-1.72,7.38,7.38,0,0,1-1.39-2.3,8.28,8.28,0,0,1-.5-3,7.82,7.82,0,0,1,.76-3.53,7.35,7.35,0,0,1,2-2.54,9.07,9.07,0,0,1,3-1.54,11.68,11.68,0,0,1,3.46-.52,15.41,15.41,0,0,1,3.2.3,11.6,11.6,0,0,1,2.48.8,9.62,9.62,0,0,1,1.89,1.14,9.16,9.16,0,0,1,1.41,1.36l-4.13,4.36a7.34,7.34,0,0,0-1.83-1.42,5.47,5.47,0,0,0-2.62-.54,3,3,0,0,0-2,.54,1.67,1.67,0,0,0-.66,1.34,1.64,1.64,0,0,0,.46,1.24,3.79,3.79,0,0,0,1.45.76l3.57,1.2a18,18,0,0,1,3.42,1.5,8.22,8.22,0,0,1,2.23,1.84,6.51,6.51,0,0,1,1.21,2.24,8.91,8.91,0,0,1,.38,2.66,9.75,9.75,0,0,1-.59,3.46A7,7,0,0,1,286,395a8.74,8.74,0,0,1-3.2,1.78A14.87,14.87,0,0,1,278.19,397.46Z" transform="translate(-48.68 -63.43)"/><path class="cls-2" d="M304.49,397.46a15.47,15.47,0,0,1-4.69-.68,10.36,10.36,0,0,1-3.71-2,9.24,9.24,0,0,1-2.44-3.4,12.15,12.15,0,0,1-.87-4.8V369.85H300v16.64a5.32,5.32,0,0,0,1.09,3.59,5.2,5.2,0,0,0,6.79,0,5.31,5.31,0,0,0,1.09-3.59V369.85h7.23v16.69a12.11,12.11,0,0,1-.88,4.8,9.25,9.25,0,0,1-2.44,3.4,10.36,10.36,0,0,1-3.72,2A15.44,15.44,0,0,1,304.49,397.46Z" transform="translate(-48.68 -63.43)"/><path class="cls-2" d="M329.16,397.06h-7.23V369.85h10.25a13.31,13.31,0,0,1,4.85.82,10.25,10.25,0,0,1,3.55,2.26,9.59,9.59,0,0,1,2.21,3.38,12.21,12.21,0,0,1,0,8.44,9.39,9.39,0,0,1-2.21,3.36,10.36,10.36,0,0,1-3.55,2.24,13.27,13.27,0,0,1-4.85.82h-3Zm2.68-12a4.24,4.24,0,0,0,3.46-1.25,5,5,0,0,0,1-3.27,6.58,6.58,0,0,0-.24-1.83,3.56,3.56,0,0,0-2.16-2.38,5.52,5.52,0,0,0-2.08-.34h-2.68v9.08Z" transform="translate(-48.68 -63.43)"/><path class="cls-2" d="M355.42,397.06h-7.23V369.85h10.25a13.32,13.32,0,0,1,4.85.82,10.24,10.24,0,0,1,3.55,2.26,9.62,9.62,0,0,1,2.21,3.38,12.18,12.18,0,0,1,0,8.44,9.41,9.41,0,0,1-2.21,3.36,10.35,10.35,0,0,1-3.55,2.24,13.28,13.28,0,0,1-4.85.82h-3Zm2.68-12a4.23,4.23,0,0,0,3.45-1.25,5,5,0,0,0,1-3.27,6.57,6.57,0,0,0-.24-1.83,3.56,3.56,0,0,0-2.16-2.38,5.51,5.51,0,0,0-2.08-.34h-2.68v9.08Z" transform="translate(-48.68 -63.43)"/><path class="cls-2" d="M374.45,369.85h7.23v21.09h11.48v6.12H374.45Z" transform="translate(-48.68 -63.43)"/><path class="cls-2" d="M390.86,369.85h7.95l6.12,11.08L411,369.85h7.59l-10.17,17.6v9.61h-7.23v-9.4Z" transform="translate(-48.68 -63.43)"/><path class="cls-2" d="M433.49,369.85h7.23v27.21h-7.23Z" transform="translate(-48.68 -63.43)"/><path class="cls-2" d="M453.67,383.5v13.56h-6.79V369.49a.32.32,0,0,1,.12-.28c.08-.05.23,0,.44.2l17,14.09V369.85h6.79v27.61c0,.16,0,.26-.12.3s-.23,0-.44-.22Z" transform="translate(-48.68 -63.43)"/><path class="cls-2" d="M501.83,390.94a12.93,12.93,0,0,1-4.89,4.94,14.58,14.58,0,0,1-7,1.54,14.36,14.36,0,0,1-5.4-1,13.74,13.74,0,0,1-8.66-12.94,14,14,0,0,1,1.11-5.65,13.73,13.73,0,0,1,3-4.4,13.69,13.69,0,0,1,9.55-3.88,16.61,16.61,0,0,1,4,.44,13.29,13.29,0,0,1,3.22,1.22,11.61,11.61,0,0,1,2.54,1.86,14.68,14.68,0,0,1,1.95,2.32l-5.44,3.72a10.77,10.77,0,0,0-.91-1.18,5.74,5.74,0,0,0-1.25-1,6.65,6.65,0,0,0-1.71-.74,8.14,8.14,0,0,0-2.24-.28A5.8,5.8,0,0,0,485,378a7.2,7.2,0,0,0-1.27,2.42,10,10,0,0,0-.44,3,9.69,9.69,0,0,0,.46,3,7.14,7.14,0,0,0,1.31,2.42,6.16,6.16,0,0,0,4.87,2.22A6.7,6.7,0,0,0,494,390a8,8,0,0,0,2.31-2.7Z" transform="translate(-48.68 -63.43)"/><path class="cls-2" d="M509,397.46a4,4,0,0,1-2.78-1.08,4,4,0,0,1,0-5.68,4,4,0,0,1,2.78-1.08,4.18,4.18,0,0,1,1.49.28,3.73,3.73,0,0,1,1.27.8,4.23,4.23,0,0,1,.87,1.24,4,4,0,0,1,0,3.2,4.19,4.19,0,0,1-.87,1.24,3.73,3.73,0,0,1-1.27.8A4.2,4.2,0,0,1,509,397.46Z" transform="translate(-48.68 -63.43)"/><path class="cls-2" d="M65,417.13a27.11,27.11,0,0,1,4.9-.44,8.53,8.53,0,0,1,4.62,1,3.82,3.82,0,0,1,2.16,3.44,4.73,4.73,0,0,1-3.76,4.47v.08a4.07,4.07,0,0,1,2.93,4.11,5.28,5.28,0,0,1-2.54,4.47c-1.58,1.06-3.93,1.51-7,1.51a25.78,25.78,0,0,1-4.71-.34Zm1,15.43a11.92,11.92,0,0,0,1.52.09c2.16,0,4.12-.87,4.12-3,0-1.87-1.55-2.43-3.4-2.43H67Zm1.61-8.24h1.33c2.19,0,3.68-1,3.68-2.55,0-1.37-1.11-2-2.63-2a6.59,6.59,0,0,0-1.55.14Z" transform="translate(-48.68 -63.43)"/><path class="cls-2" d="M92.19,422l-1.74,9.22c-.33,1.73-.52,3.22-.72,4.45H86.21l.25-2.24H86.4A5.86,5.86,0,0,1,81.73,436c-2.16,0-3.46-1.23-3.46-3.83a12.47,12.47,0,0,1,.28-2.52L80,422h4l-1.36,7.32a11,11,0,0,0-.19,1.79c0,.89.33,1.59,1.36,1.59,1.35,0,2.74-1.65,3.26-4.39L88.2,422Z" transform="translate(-48.68 -63.43)"/><path class="cls-2" d="M93,435.67,95.57,422h4L97,435.67Zm3.13-17.33A2.28,2.28,0,0,1,98.42,416a1.89,1.89,0,0,1,2,2,2.22,2.22,0,0,1-2.35,2.26A1.85,1.85,0,0,1,96.12,418.34Z" transform="translate(-48.68 -63.43)"/><path class="cls-2" d="M100.33,435.67l3.76-19.85h4l-3.76,19.85Z" transform="translate(-48.68 -63.43)"/><path class="cls-2" d="M123.55,415.82l-2.74,14.54a37.05,37.05,0,0,0-.64,5.31h-3.65l.19-2.21h-.05a5.17,5.17,0,0,1-4.43,2.52c-2.29,0-4.2-1.85-4.2-5.17,0-4.75,3.4-9.12,8.52-9.12a5.47,5.47,0,0,1,1.85.31l1.16-6.18Zm-5.73,9.39a2.66,2.66,0,0,0-1.58-.47c-2.38,0-4.07,2.79-4.07,5.42,0,1.65.72,2.57,1.88,2.57s2.55-1.23,3.07-3.83Z" transform="translate(-48.68 -63.43)"/><path class="cls-2" d="M123.17,435.67,125.74,422h4l-2.57,13.67Zm3.13-17.33a2.28,2.28,0,0,1,2.3-2.29,1.89,1.89,0,0,1,2,2,2.22,2.22,0,0,1-2.35,2.26A1.85,1.85,0,0,1,126.29,418.34Z" transform="translate(-48.68 -63.43)"/><path class="cls-2" d="M130.5,435.67l1.72-9.23c.33-1.73.55-3.24.72-4.44h3.54l-.28,2.26h.06a5.67,5.67,0,0,1,4.76-2.57c2.21,0,3.46,1.37,3.46,3.72a16.94,16.94,0,0,1-.22,2.32l-1.49,7.94h-4l1.41-7.58a9.37,9.37,0,0,0,.14-1.54c0-1-.33-1.62-1.33-1.62-1.3,0-2.82,1.65-3.37,4.67l-1.13,6.07Z" transform="translate(-48.68 -63.43)"/><path class="cls-2" d="M147,437.57a8.49,8.49,0,0,0,3.54.76c2,0,3.49-.89,4-3.63l.22-1.15h-.05a4.59,4.59,0,0,1-3.87,2c-2.68,0-4.32-2.21-4.34-4.86a8.76,8.76,0,0,1,9.08-9,12.48,12.48,0,0,1,5,1l-2,11.26c-.47,2.52-1.22,4.75-2.85,6.07a8.34,8.34,0,0,1-5.23,1.54,9.67,9.67,0,0,1-4.4-.87Zm9.3-12.55a4,4,0,0,0-1.44-.25c-2.41,0-4.12,2.71-4.12,5.31,0,1.37.61,2.38,1.82,2.38s2.63-1.46,3-3.78Z" transform="translate(-48.68 -63.43)"/><path class="cls-2" d="M167.59,431.31a8.68,8.68,0,0,0,4.4,1.2c1.55,0,3-.72,3-2.21,0-1.06-.8-1.76-2.52-2.65-2-1.09-3.87-2.55-3.87-5,0-3.8,3.29-6.12,7.36-6.12a8.78,8.78,0,0,1,4.4,1l-1.25,3.36a7.37,7.37,0,0,0-3.49-.84c-1.85,0-2.82,1-2.82,2s1.13,1.76,2.71,2.66c2.27,1.2,3.71,2.74,3.71,5,0,4.19-3.43,6.34-7.58,6.34a9.23,9.23,0,0,1-5.34-1.34Z" transform="translate(-48.68 -63.43)"/><path class="cls-2" d="M195.43,422l-1.74,9.22c-.33,1.73-.52,3.22-.72,4.45h-3.51l.25-2.24h-.06A5.86,5.86,0,0,1,185,436c-2.16,0-3.46-1.23-3.46-3.83a12.46,12.46,0,0,1,.28-2.52L183.2,422h4l-1.35,7.32a10.94,10.94,0,0,0-.19,1.79c0,.89.33,1.59,1.36,1.59,1.36,0,2.74-1.65,3.27-4.39l1.19-6.32Z" transform="translate(-48.68 -63.43)"/><path class="cls-2" d="M195.16,441.2l2.6-13.92c.3-1.62.64-3.89.8-5.28h3.57l-.25,2h.05a5.45,5.45,0,0,1,4.35-2.3c2.93,0,4.35,2.38,4.35,5.17,0,4.75-3.13,9.11-7.83,9.11a5.31,5.31,0,0,1-2.52-.56h-.05l-1.11,5.79Zm5.67-8.95a2.56,2.56,0,0,0,1.82.67c2.13,0,3.79-3.08,3.79-5.76,0-1.09-.44-2.23-1.74-2.23-1.5,0-2.88,1.71-3.38,4.39Z" transform="translate(-48.68 -63.43)"/><path class="cls-2" d="M210.71,441.2l2.6-13.92c.3-1.62.63-3.89.8-5.28h3.57l-.25,2h.05a5.45,5.45,0,0,1,4.34-2.3c2.93,0,4.34,2.38,4.34,5.17,0,4.75-3.13,9.11-7.83,9.11a5.31,5.31,0,0,1-2.52-.56h-.06l-1.11,5.79Zm5.67-8.95a2.56,2.56,0,0,0,1.83.67c2.13,0,3.79-3.08,3.79-5.76,0-1.09-.44-2.23-1.74-2.23-1.49,0-2.88,1.71-3.38,4.39Z" transform="translate(-48.68 -63.43)"/><path class="cls-2" d="M227.35,435.67l3.76-19.85h4l-3.76,19.85Z" transform="translate(-48.68 -63.43)"/><path class="cls-2" d="M234.68,435.67,237.25,422h4l-2.57,13.67Zm3.12-17.33a2.28,2.28,0,0,1,2.3-2.29,1.89,1.89,0,0,1,2,2,2.22,2.22,0,0,1-2.35,2.26A1.85,1.85,0,0,1,237.81,418.34Z" transform="translate(-48.68 -63.43)"/><path class="cls-2" d="M253.34,434.88a11.49,11.49,0,0,1-5,1.06c-3.87,0-5.87-2.21-5.87-5.75,0-4.17,3-8.5,7.89-8.5,2.74,0,4.7,1.54,4.7,4.08,0,3.49-3.35,4.75-8.77,4.61a2.73,2.73,0,0,0,.42,1.4,3.11,3.11,0,0,0,2.6,1.06,8.45,8.45,0,0,0,3.79-.87Zm-3.52-10.26a3.37,3.37,0,0,0-3.18,2.82c3.1,0,4.65-.41,4.65-1.65C251.29,425.1,250.73,424.63,249.82,424.63Z" transform="translate(-48.68 -63.43)"/><path class="cls-2" d="M256.38,432.06a8.7,8.7,0,0,0,3.54,1c1.14,0,1.71-.56,1.71-1.23s-.44-1.15-1.69-1.76c-1.58-.78-2.88-1.93-2.88-3.63,0-2.82,2.46-4.7,5.95-4.7a7.38,7.38,0,0,1,3.49.7l-.94,2.85a6.3,6.3,0,0,0-2.71-.61c-1.05,0-1.77.47-1.77,1.2,0,.56.55,1,1.66,1.57,1.47.75,3,1.85,3,3.75,0,3.13-2.63,4.81-6.2,4.81a7.49,7.49,0,0,1-4.15-1.06Z" transform="translate(-48.68 -63.43)"/><path class="cls-2" d="M276.2,416.82h10.93l-.66,3.44h-6.92l-.86,4.42h6.5l-.66,3.41h-6.47l-1.41,7.58h-4Z" transform="translate(-48.68 -63.43)"/><path class="cls-2" d="M300.25,427.31c0,5-3.38,8.67-8.08,8.67a5.38,5.38,0,0,1-5.73-5.65c0-4.75,3.26-8.64,8.08-8.64A5.4,5.4,0,0,1,300.25,427.31Zm-9.68,2.94c0,1.59.77,2.65,2.16,2.65,2.19,0,3.4-3.21,3.4-5.56,0-1.26-.53-2.6-2.13-2.6C291.7,424.74,290.53,428.12,290.56,430.24Z" transform="translate(-48.68 -63.43)"/><path class="cls-2" d="M301.44,435.67l1.52-8.13c.39-2.07.55-4.36.69-5.54h3.46c-.08.92-.17,1.84-.25,2.79h.08a5.06,5.06,0,0,1,4.32-3.1,5.76,5.76,0,0,1,.75,0l-.77,3.91a4.92,4.92,0,0,0-.64,0c-2.55,0-3.74,2.29-4.23,5l-.94,5.09Z" transform="translate(-48.68 -63.43)"/><path class="cls-2" d="M320.4,417.13a27,27,0,0,1,4.89-.44,8.54,8.54,0,0,1,4.62,1,3.82,3.82,0,0,1,2.16,3.44,4.73,4.73,0,0,1-3.76,4.47v.08a4.07,4.07,0,0,1,2.93,4.11,5.28,5.28,0,0,1-2.54,4.47c-1.58,1.06-3.93,1.51-7,1.51a25.72,25.72,0,0,1-4.7-.34Zm1,15.43a11.91,11.91,0,0,0,1.52.09c2.16,0,4.12-.87,4.12-3,0-1.87-1.55-2.43-3.4-2.43h-1.25Zm1.6-8.24h1.33c2.19,0,3.68-1,3.68-2.55,0-1.37-1.11-2-2.63-2a6.59,6.59,0,0,0-1.55.14Z" transform="translate(-48.68 -63.43)"/><path class="cls-2" d="M347.58,422l-1.74,9.22c-.33,1.73-.53,3.22-.72,4.45H341.6l.25-2.24h-.05a5.86,5.86,0,0,1-4.68,2.54c-2.16,0-3.46-1.23-3.46-3.83a12.45,12.45,0,0,1,.28-2.52l1.41-7.63h4L338,429.32a11.21,11.21,0,0,0-.19,1.79c0,.89.33,1.59,1.35,1.59,1.36,0,2.74-1.65,3.27-4.39l1.19-6.32Z" transform="translate(-48.68 -63.43)"/><path class="cls-2" d="M348.38,435.67,351,422h4l-2.57,13.67Zm3.12-17.33a2.28,2.28,0,0,1,2.3-2.29,1.89,1.89,0,0,1,2,2,2.22,2.22,0,0,1-2.35,2.26A1.85,1.85,0,0,1,351.51,418.34Z" transform="translate(-48.68 -63.43)"/><path class="cls-2" d="M355.72,435.67l3.76-19.85h4l-3.76,19.85Z" transform="translate(-48.68 -63.43)"/><path class="cls-2" d="M378.93,415.82l-2.74,14.54a37.2,37.2,0,0,0-.64,5.31h-3.65l.19-2.21H372a5.17,5.17,0,0,1-4.42,2.52c-2.3,0-4.21-1.85-4.21-5.17,0-4.75,3.41-9.12,8.52-9.12a5.46,5.46,0,0,1,1.85.31l1.16-6.18Zm-5.73,9.39a2.67,2.67,0,0,0-1.58-.47c-2.38,0-4.07,2.79-4.07,5.42,0,1.65.72,2.57,1.88,2.57s2.55-1.23,3.07-3.83Z" transform="translate(-48.68 -63.43)"/><path class="cls-2" d="M378.55,435.67,381.13,422h4l-2.57,13.67Zm3.13-17.33A2.28,2.28,0,0,1,384,416a1.89,1.89,0,0,1,2,2,2.22,2.22,0,0,1-2.35,2.26A1.85,1.85,0,0,1,381.68,418.34Z" transform="translate(-48.68 -63.43)"/><path class="cls-2" d="M385.89,435.67l1.71-9.23c.33-1.73.55-3.24.72-4.44h3.54l-.28,2.26h.05a5.68,5.68,0,0,1,4.76-2.57c2.21,0,3.46,1.37,3.46,3.72a17.32,17.32,0,0,1-.22,2.32l-1.49,7.94h-4l1.41-7.58a9.17,9.17,0,0,0,.14-1.54c0-1-.33-1.62-1.33-1.62-1.3,0-2.82,1.65-3.38,4.67l-1.13,6.07Z" transform="translate(-48.68 -63.43)"/><path class="cls-2" d="M402.35,437.57a8.52,8.52,0,0,0,3.54.76c2,0,3.49-.89,4-3.63l.22-1.15h-.06a4.59,4.59,0,0,1-3.87,2c-2.68,0-4.32-2.21-4.35-4.86a8.76,8.76,0,0,1,9.08-9,12.48,12.48,0,0,1,5,1l-2,11.26c-.47,2.52-1.22,4.75-2.85,6.07a8.34,8.34,0,0,1-5.23,1.54,9.67,9.67,0,0,1-4.4-.87Zm9.3-12.55a4,4,0,0,0-1.44-.25c-2.41,0-4.12,2.71-4.12,5.31,0,1.37.61,2.38,1.83,2.38s2.63-1.46,3-3.78Z" transform="translate(-48.68 -63.43)"/><path class="cls-2" d="M423,431.31a8.7,8.7,0,0,0,4.4,1.2c1.55,0,3-.72,3-2.21,0-1.06-.8-1.76-2.52-2.65-2-1.09-3.87-2.55-3.87-5,0-3.8,3.29-6.12,7.36-6.12a8.77,8.77,0,0,1,4.4,1l-1.24,3.36A7.37,7.37,0,0,0,431,420c-1.85,0-2.82,1-2.82,2s1.13,1.76,2.71,2.66c2.27,1.2,3.71,2.74,3.71,5,0,4.19-3.43,6.34-7.58,6.34a9.22,9.22,0,0,1-5.34-1.34Z" transform="translate(-48.68 -63.43)"/><path class="cls-2" d="M450.82,422l-1.74,9.22c-.33,1.73-.53,3.22-.72,4.45h-3.51l.25-2.24H445a5.86,5.86,0,0,1-4.68,2.54c-2.16,0-3.46-1.23-3.46-3.83a12.53,12.53,0,0,1,.28-2.52l1.41-7.63h4l-1.36,7.32a11.33,11.33,0,0,0-.19,1.79c0,.89.33,1.59,1.36,1.59,1.36,0,2.74-1.65,3.27-4.39l1.19-6.32Z" transform="translate(-48.68 -63.43)"/><path class="cls-2" d="M461.61,435.25a9.3,9.3,0,0,1-3.85.7c-3.35,0-5.7-2-5.7-5.59a8.53,8.53,0,0,1,8.83-8.67,7.36,7.36,0,0,1,2.74.48l-1,3.08a4.55,4.55,0,0,0-1.82-.34,4.73,4.73,0,0,0-4.6,5,2.55,2.55,0,0,0,2.66,2.82,6.72,6.72,0,0,0,2.68-.56Z" transform="translate(-48.68 -63.43)"/><path class="cls-2" d="M473.38,435.25a9.29,9.29,0,0,1-3.84.7c-3.35,0-5.7-2-5.7-5.59a8.53,8.53,0,0,1,8.82-8.67,7.4,7.4,0,0,1,2.74.48l-1,3.08a4.52,4.52,0,0,0-1.82-.34,4.73,4.73,0,0,0-4.59,5,2.55,2.55,0,0,0,2.66,2.82,6.75,6.75,0,0,0,2.69-.56Z" transform="translate(-48.68 -63.43)"/><path class="cls-2" d="M486.47,434.88a11.47,11.47,0,0,1-5,1.06c-3.87,0-5.87-2.21-5.87-5.75,0-4.17,3-8.5,7.89-8.5,2.74,0,4.7,1.54,4.7,4.08,0,3.49-3.35,4.75-8.77,4.61a2.72,2.72,0,0,0,.42,1.4,3.11,3.11,0,0,0,2.6,1.06,8.45,8.45,0,0,0,3.79-.87ZM483,424.63a3.37,3.37,0,0,0-3.18,2.82c3.1,0,4.64-.41,4.64-1.65C484.42,425.1,483.87,424.63,483,424.63Z" transform="translate(-48.68 -63.43)"/><path class="cls-2" d="M489.52,432.06a8.7,8.7,0,0,0,3.54,1c1.13,0,1.72-.56,1.72-1.23s-.45-1.15-1.69-1.76c-1.58-.78-2.88-1.93-2.88-3.63,0-2.82,2.46-4.7,5.95-4.7a7.41,7.41,0,0,1,3.49.7l-.94,2.85a6.29,6.29,0,0,0-2.71-.61c-1.05,0-1.77.47-1.77,1.2,0,.56.55,1,1.66,1.57,1.46.75,3,1.85,3,3.75,0,3.13-2.63,4.81-6.2,4.81a7.49,7.49,0,0,1-4.15-1.06Z" transform="translate(-48.68 -63.43)"/><path class="cls-2" d="M501,432.06a8.71,8.71,0,0,0,3.54,1c1.14,0,1.72-.56,1.72-1.23s-.44-1.15-1.69-1.76c-1.58-.78-2.88-1.93-2.88-3.63,0-2.82,2.46-4.7,5.95-4.7a7.38,7.38,0,0,1,3.49.7l-.94,2.85a6.28,6.28,0,0,0-2.71-.61c-1.05,0-1.77.47-1.77,1.2,0,.56.55,1,1.66,1.57,1.47.75,3,1.85,3,3.75,0,3.13-2.63,4.81-6.2,4.81a7.5,7.5,0,0,1-4.15-1.06Z" transform="translate(-48.68 -63.43)"/><path class="cls-3" d="M83.63,345.83l-.33-8.9H67.93l-3.29,8.9H48.93l24.71-56.59H93l7.7,56.59Zm-2.26-43C78.63,309.24,75,317.24,72.53,324h10.3C82.43,316.25,81.83,309.09,81.37,302.82Z" transform="translate(-48.68 -63.43)"/><path class="cls-3" d="M132.24,345.83l-7.8-23-3.62,23H105.68l8.9-56.59H134.4c12.25,0,21.14,4,18.84,18.64-1.21,7.7-4.16,12.68-12.1,16.75l8.64,21.2Zm-4.52-44.21-2.24,14.26h4.9c5,0,6.17-2.41,6.93-7.24s.1-7-4.69-7Z" transform="translate(-48.68 -63.43)"/><path class="cls-3" d="M181.3,345.83l-7.8-23-3.62,23H154.74l8.9-56.59h19.82c12.25,0,21.15,4,18.84,18.64-1.21,7.7-4.17,12.68-12.1,16.75l8.64,21.2Zm-4.52-44.21-2.24,14.26h4.9c5,0,6.17-2.41,6.93-7.24s.1-7-4.69-7Z" transform="translate(-48.68 -63.43)"/><path class="cls-3" d="M206.19,317.54c3-18.94,11.1-29.2,28.37-29.2s22.11,10.26,19.13,29.2c-3,19.17-10.68,29-28.28,29C208.26,346.51,203.25,336.25,206.19,317.54Zm26.14-15.39c-4.12,0-6.56,2.41-8,5.66a25.57,25.57,0,0,0-1.37,4.83l-.76,4.83-.77,4.9a24.18,24.18,0,0,0-.17,5c.31,3.32,2.1,5.81,6.33,5.81s6.64-2.57,8-5.88a32.45,32.45,0,0,0,1.4-5c.32-1.66.52-3.32.76-4.83.26-1.66.58-3.32.77-4.91a26.94,26.94,0,0,0,.16-4.9C238.32,304.41,236.56,302.15,232.33,302.15Z" transform="translate(-48.68 -63.43)"/><path class="cls-3" d="M261.88,345.83l-2.46-56.59h15.42c-.39,12.75.67,24.45-.19,38.41,3.64-14,8.72-25.73,12.55-38.41h16.32c-.16,12.68,1.42,24.29.9,38.18,3.2-14,8-25.58,11.62-38.18h14.59l-20.2,56.59H292c.3-12.15-.56-24.07.33-37.5-3.55,13.36-8.61,25.35-12,37.5Z" transform="translate(-48.68 -63.43)"/><path class="cls-3" d="M355.49,345.83l3.39-21.58H346.08l-3.39,21.58H327.43l8.9-56.59h15.26l-3.33,21.2h12.81l3.33-21.2h15.25l-8.89,56.59Z" transform="translate(-48.68 -63.43)"/><path class="cls-3" d="M414.56,345.83h-36.7l8.9-56.59h35.81l-1.91,13.58H400l-1.3,8.3h16.82L413.64,323H396.82l-1.48,9.43h21.55Z" transform="translate(-48.68 -63.43)"/><path class="cls-3" d="M453.7,345.83l-.33-8.9H438l-3.29,8.9H419l24.71-56.59H463.1l7.7,56.59Zm-2.26-43c-2.73,6.42-6.33,14.41-8.83,21.13h10.3C452.5,316.25,451.91,309.09,451.44,302.82Z" transform="translate(-48.68 -63.43)"/><path class="cls-3" d="M475.76,345.83l8.9-56.59h20.49c17.21,0,22.37,9,19.38,28-2.93,18.64-11,28.6-28,28.6Zm33.5-33.5a16.23,16.23,0,0,0,0-4.53c-.47-3-2.36-4.83-6.37-4.83h-5.29L493,332.25h5.29a8.08,8.08,0,0,0,8.13-5.28,23.29,23.29,0,0,0,1.36-4.75c.26-1.66.42-3.39.68-5.05S509.13,313.84,509.25,312.33Z" transform="translate(-48.68 -63.43)"/></svg>