<svg id="Capa_1" data-name="Capa 1" xmlns="http://www.w3.org/2000/svg" viewBox="0 0 384 384"><defs><style>.cls-1{fill:#fff;}.cls-2{fill:#d8d8d8;}.cls-3{fill:#0b9444;}.cls-4{fill:#010101;}</style></defs><title>pdf-dl</title><polygon class="cls-1" points="72 8 376 8 376 280 280 376 72 376 72 8"/><polygon class="cls-2" points="280 280 376 280 280 376 280 280"/><rect class="cls-3" x="8" y="88" width="256" height="128"/><path class="cls-4" d="M64,0V80H0V224H64V384H288l96-96V0ZM16,96H256V208H16ZM288,361.38V288h73.38ZM368,272H272v96H80V224H272V80H80V16H368Z"/><path class="cls-1" d="M73,117.86a20,20,0,0,1,8.88,1.78,16.06,16.06,0,0,1,5.81,4.66,18.2,18.2,0,0,1,3.17,6.58,30.5,30.5,0,0,1,1,7.54,24.59,24.59,0,0,1-1.58,9.22A16.54,16.54,0,0,1,85.81,154a18.27,18.27,0,0,1-6.86,3.74A30.62,30.62,0,0,1,70,159H62.62V186.4H48.8V117.86Zm-4.22,31a9.1,9.1,0,0,0,6.67-2.51q2.54-2.5,2.54-7.78t-2.21-7.87C74.3,129,71.84,128,68.38,128H62.62V148.9Z"/><path class="cls-1" d="M131.55,117.84c4.82,0,8.67.8,11.63,2.37a16.63,16.63,0,0,1,6.86,6.72,29.45,29.45,0,0,1,3.31,10.51,99.09,99.09,0,0,1,.86,13.71,97.57,97.57,0,0,1-1.09,15.7,30.08,30.08,0,0,1-3.79,11,16.54,16.54,0,0,1-7.2,6.43,27,27,0,0,1-11.42,2.11H108.9V117.84Zm-2.69,58.4a11.87,11.87,0,0,0,5.86-1.25,8.56,8.56,0,0,0,3.5-4.13,23.3,23.3,0,0,0,1.73-7.6q.43-4.68.43-11.7c0-3.9-.14-7.33-.38-10.29a25.35,25.35,0,0,0-1.58-7.34,9,9,0,0,0-3.57-4.4,11.64,11.64,0,0,0-6.29-1.5h-5.84v48.21Z"/><path class="cls-1" d="M211.23,117.86v11.33H186.75v16.13h23v11.33h-23V186.4H172.93V117.86Z"/></svg>